<svg id="Capa_1" enable-background="new 0 0 512 512" height="512" viewBox="0 0 512 512" width="512" xmlns="http://www.w3.org/2000/svg"><path d="m446.058 77.432h-97.305v85.773c0 50.267-35.549 95.987-90.953 117.518-.577.224-1.189.337-1.8.337s-1.223-.113-1.8-.337c-55.407-21.531-90.953-67.252-90.953-117.518v-85.773h-97.305c-22.582 0-41.058 18.476-41.058 41.058v270.366c0 20.525 15.264 37.654 35.001 40.606h392.231c19.737-2.951 35.001-20.081 35.001-40.606v-270.365c0-22.583-18.477-41.059-41.059-41.059z" fill="#685e68"/><path d="m64.717 388.857v-270.366c0-22.583 18.476-41.058 41.058-41.058h-39.833c-22.583 0-41.058 18.476-41.058 41.058v270.366c0 20.525 15.264 37.655 35.001 40.606h39.834c-19.738-2.952-35.002-20.081-35.002-40.606z" fill="#554e56"/><path d="m101.079 114.599h62.167v40.268h-62.167z" fill="#23a8fe"/><path d="m443.266 114.599h-94.512v40.268h100.954v-33.825c0-3.558-2.885-6.443-6.442-6.443z" fill="#23a8fe"/><path d="m104.17 154.867v-40.268h-35.436c-3.558 0-6.442 2.885-6.442 6.443v33.825z" fill="#ff646f"/><path d="m506.005 428.432h-500.01c-3.311 0-5.995 2.71-5.995 6.054v20.823c0 15.451 12.519 28.092 27.82 28.092h456.36c15.301 0 27.82-12.642 27.82-28.092v-20.823c0-3.343-2.684-6.054-5.995-6.054z" fill="#dfebfa"/><path d="m40.785 455.309v-20.823c0-3.343 2.684-6.054 5.995-6.054h-40.785c-3.311 0-5.995 2.71-5.995 6.054v20.823c0 15.45 12.519 28.092 27.82 28.092h40.785c-15.301 0-27.82-12.642-27.82-28.092z" fill="#b4dbff"/><path d="m348.754 152.807v10.399c0 50.267-35.549 95.987-90.953 117.518-.577.224-1.189.337-1.8.337s-1.223-.113-1.8-.337c-55.407-21.531-90.953-67.252-90.953-117.518v-10.399c-54.326 0-95.993 0-100.954 0v232.066c0 3.558 2.885 6.443 6.442 6.443h374.531c3.558 0 6.442-2.884 6.442-6.443 0-11.003 0-219.343 0-232.066-5.52 0-47.013 0-100.955 0z" fill="#dfebfa"/><path d="m104.17 384.872v-232.065h-41.878v232.066c0 3.558 2.885 6.443 6.442 6.443h41.878c-3.557-.001-6.442-2.885-6.442-6.444z" fill="#b4dbff"/><path d="m181.32 428.432v13.97c0 6.866 5.563 12.484 12.363 12.484h124.635c6.8 0 12.363-5.618 12.363-12.484v-13.97z" fill="#b4dbff"/><path d="m222.104 442.403v-13.97h-40.784v13.97c0 6.866 5.563 12.484 12.363 12.484h40.785c-6.8 0-12.364-5.618-12.364-12.484z" fill="#8bcaff"/><path d="m355.576 28.599h-199.152c-13.279 0-24.082 10.804-24.082 24.084v110.523c0 64.703 45.353 122.856 115.547 148.154 2.615.942 5.362 1.412 8.11 1.412 2.75 0 5.499-.472 8.117-1.414 70.19-25.295 115.544-83.449 115.544-148.152v-110.524c-.001-13.279-10.805-24.083-24.084-24.083zm-8.883 134.607c0 49.061-35.186 94.436-89.639 115.598-.674.263-1.435.262-2.108 0-54.454-21.16-89.639-66.535-89.639-115.598v-98.722c0-1.61 1.31-2.92 2.92-2.92h175.546c1.61 0 2.92 1.31 2.92 2.92z" fill="#fee55a"/><path d="m168.269 187.665c-1.934-7.983-2.962-16.166-2.962-24.459v-98.722c0-.758.298-1.443.773-1.962v-9.84c0-13.28 10.804-24.084 24.082-24.084h-33.738c-13.279 0-24.082 10.804-24.082 24.084v110.523c0 64.703 45.353 122.856 115.547 148.154 2.615.942 5.362 1.412 8.11 1.412 2.75 0 5.499-.472 8.117-1.414 2.964-1.068 5.88-2.2 8.754-3.383-56.476-23.256-95.249-68.367-104.601-120.309z" fill="#ffd301"/><path d="m348.754 163.206v-98.722c0-2.751-2.23-4.98-4.98-4.98h-90.864v103.701h95.844z" fill="#23a8fe"/><path d="m163.247 64.484v98.721h92.753v-103.701h-87.773c-2.751 0-4.98 2.23-4.98 4.98z" fill="#43cd8e"/><path d="m199.644 59.504h-31.417c-2.751 0-4.98 2.229-4.98 4.98v98.721h31.417v-98.721c0-2.75 2.23-4.98 4.98-4.98z" fill="#00ba66"/><path d="m256 281.061c.612 0 1.223-.113 1.8-.337 55.404-21.531 90.953-67.252 90.953-117.518h-95.843z" fill="#43cd8e"/><path d="m256 281.061c.612 0 1.223-.113 1.8-.337 55.404-21.531 90.953-67.252 90.953-117.518h-95.843z" fill="#43cd8e"/><path d="m256 265.767-.414-.492.414 15.786c.612 0 1.223-.113 1.8-.337 4.288-1.666 8.441-3.494 12.484-5.441z" fill="#00ba66"/><path d="m163.247 163.206c0 50.267 35.546 95.987 90.953 117.518.577.224 1.189.337 1.8.337v-117.855z" fill="#23a8fe"/><path d="m163.247 163.206c0 50.267 35.546 95.987 90.953 117.518.577.224 1.189.337 1.8.337v-117.855z" fill="#23a8fe"/><path d="m194.664 163.206h-31.417c0 50.267 35.546 95.987 90.953 117.518.577.224 1.189.337 1.8.337v-15.294c-38.129-24.318-61.336-61.952-61.336-102.561z" fill="#0094fd"/></svg>